<mxfile host="www.draw.io" modified="2020-02-15T21:02:57.036Z" agent="Mozilla/5.0 (Windows NT 10.0; Win64; x64) AppleWebKit/537.36 (KHTML, like Gecko) Chrome/71.0.3578.98 Safari/537.36" etag="UulSmgBb4ruYS9KQPnJp" version="12.7.0" type="github">
  <diagram id="f916yWhN7lUKwQ2ujoh-" name="Page-1">
    <mxGraphModel dx="1408" dy="780" grid="1" gridSize="10" guides="1" tooltips="1" connect="1" arrows="1" fold="1" page="1" pageScale="1" pageWidth="850" pageHeight="1100" math="0" shadow="0">
      <root>
        <mxCell id="0"/>
        <mxCell id="1" parent="0"/>
        <mxCell id="GG5zjLNrDSkH6sf3eMIs-9" value="1-7" style="ellipse;whiteSpace=wrap;html=1;" vertex="1" parent="1">
          <mxGeometry x="375" y="40" width="90" height="40" as="geometry"/>
        </mxCell>
        <mxCell id="GG5zjLNrDSkH6sf3eMIs-10" value="" style="endArrow=classic;html=1;" edge="1" parent="1">
          <mxGeometry width="50" height="50" relative="1" as="geometry">
            <mxPoint x="419.5" y="80" as="sourcePoint"/>
            <mxPoint x="419.5" y="120" as="targetPoint"/>
          </mxGeometry>
        </mxCell>
        <mxCell id="GG5zjLNrDSkH6sf3eMIs-11" value="8" style="ellipse;whiteSpace=wrap;html=1;" vertex="1" parent="1">
          <mxGeometry x="375" y="120" width="90" height="40" as="geometry"/>
        </mxCell>
        <mxCell id="GG5zjLNrDSkH6sf3eMIs-12" value="" style="endArrow=classic;html=1;" edge="1" parent="1">
          <mxGeometry width="50" height="50" relative="1" as="geometry">
            <mxPoint x="415" y="160" as="sourcePoint"/>
            <mxPoint x="175" y="240" as="targetPoint"/>
          </mxGeometry>
        </mxCell>
        <mxCell id="GG5zjLNrDSkH6sf3eMIs-13" value="" style="endArrow=classic;html=1;" edge="1" parent="1">
          <mxGeometry width="50" height="50" relative="1" as="geometry">
            <mxPoint x="425" y="160" as="sourcePoint"/>
            <mxPoint x="675" y="240" as="targetPoint"/>
          </mxGeometry>
        </mxCell>
        <mxCell id="GG5zjLNrDSkH6sf3eMIs-19" value="" style="edgeStyle=orthogonalEdgeStyle;rounded=0;orthogonalLoop=1;jettySize=auto;html=1;" edge="1" parent="1" source="GG5zjLNrDSkH6sf3eMIs-14" target="GG5zjLNrDSkH6sf3eMIs-18">
          <mxGeometry relative="1" as="geometry"/>
        </mxCell>
        <mxCell id="GG5zjLNrDSkH6sf3eMIs-14" value="9" style="ellipse;whiteSpace=wrap;html=1;" vertex="1" parent="1">
          <mxGeometry x="125" y="240" width="90" height="40" as="geometry"/>
        </mxCell>
        <mxCell id="GG5zjLNrDSkH6sf3eMIs-15" value="14-16" style="ellipse;whiteSpace=wrap;html=1;" vertex="1" parent="1">
          <mxGeometry x="635" y="240" width="90" height="40" as="geometry"/>
        </mxCell>
        <mxCell id="GG5zjLNrDSkH6sf3eMIs-16" value="True" style="text;html=1;align=center;verticalAlign=middle;resizable=0;points=[];autosize=1;" vertex="1" parent="1">
          <mxGeometry x="265" y="180" width="40" height="20" as="geometry"/>
        </mxCell>
        <mxCell id="GG5zjLNrDSkH6sf3eMIs-17" value="False" style="text;html=1;align=center;verticalAlign=middle;resizable=0;points=[];autosize=1;" vertex="1" parent="1">
          <mxGeometry x="555" y="180" width="40" height="20" as="geometry"/>
        </mxCell>
        <mxCell id="GG5zjLNrDSkH6sf3eMIs-18" value="10" style="ellipse;whiteSpace=wrap;html=1;" vertex="1" parent="1">
          <mxGeometry x="125" y="340" width="90" height="40" as="geometry"/>
        </mxCell>
        <mxCell id="GG5zjLNrDSkH6sf3eMIs-20" value="13" style="ellipse;whiteSpace=wrap;html=1;" vertex="1" parent="1">
          <mxGeometry x="175" y="550" width="90" height="40" as="geometry"/>
        </mxCell>
        <mxCell id="GG5zjLNrDSkH6sf3eMIs-21" value="11-12" style="ellipse;whiteSpace=wrap;html=1;" vertex="1" parent="1">
          <mxGeometry x="45" y="460" width="90" height="40" as="geometry"/>
        </mxCell>
        <mxCell id="GG5zjLNrDSkH6sf3eMIs-24" value="" style="endArrow=classic;html=1;entryX=0.5;entryY=0;entryDx=0;entryDy=0;" edge="1" parent="1" target="GG5zjLNrDSkH6sf3eMIs-21">
          <mxGeometry width="50" height="50" relative="1" as="geometry">
            <mxPoint x="165" y="380" as="sourcePoint"/>
            <mxPoint x="125" y="420" as="targetPoint"/>
          </mxGeometry>
        </mxCell>
        <mxCell id="GG5zjLNrDSkH6sf3eMIs-25" value="True" style="text;html=1;align=center;verticalAlign=middle;resizable=0;points=[];autosize=1;" vertex="1" parent="1">
          <mxGeometry x="85" y="410" width="40" height="20" as="geometry"/>
        </mxCell>
        <mxCell id="GG5zjLNrDSkH6sf3eMIs-26" value="" style="endArrow=classic;html=1;entryX=0.5;entryY=0;entryDx=0;entryDy=0;" edge="1" parent="1" source="GG5zjLNrDSkH6sf3eMIs-18" target="GG5zjLNrDSkH6sf3eMIs-20">
          <mxGeometry width="50" height="50" relative="1" as="geometry">
            <mxPoint x="175" y="390" as="sourcePoint"/>
            <mxPoint x="100" y="470" as="targetPoint"/>
          </mxGeometry>
        </mxCell>
        <mxCell id="GG5zjLNrDSkH6sf3eMIs-27" value="False" style="text;html=1;align=center;verticalAlign=middle;resizable=0;points=[];autosize=1;" vertex="1" parent="1">
          <mxGeometry x="200" y="410" width="40" height="20" as="geometry"/>
        </mxCell>
        <mxCell id="GG5zjLNrDSkH6sf3eMIs-28" value="" style="endArrow=classic;html=1;entryX=0;entryY=0.5;entryDx=0;entryDy=0;exitX=0.5;exitY=1;exitDx=0;exitDy=0;" edge="1" parent="1" source="GG5zjLNrDSkH6sf3eMIs-21" target="GG5zjLNrDSkH6sf3eMIs-20">
          <mxGeometry width="50" height="50" relative="1" as="geometry">
            <mxPoint x="100" y="550" as="sourcePoint"/>
            <mxPoint x="150" y="500" as="targetPoint"/>
          </mxGeometry>
        </mxCell>
        <mxCell id="GG5zjLNrDSkH6sf3eMIs-29" value="17-19" style="ellipse;whiteSpace=wrap;html=1;" vertex="1" parent="1">
          <mxGeometry x="380" y="640" width="90" height="40" as="geometry"/>
        </mxCell>
        <mxCell id="GG5zjLNrDSkH6sf3eMIs-30" value="" style="endArrow=classic;html=1;entryX=0;entryY=0.5;entryDx=0;entryDy=0;" edge="1" parent="1" target="GG5zjLNrDSkH6sf3eMIs-29">
          <mxGeometry width="50" height="50" relative="1" as="geometry">
            <mxPoint x="220" y="590" as="sourcePoint"/>
            <mxPoint x="270" y="540" as="targetPoint"/>
          </mxGeometry>
        </mxCell>
        <mxCell id="GG5zjLNrDSkH6sf3eMIs-33" value="" style="endArrow=classic;html=1;entryX=1;entryY=0.5;entryDx=0;entryDy=0;" edge="1" parent="1" target="GG5zjLNrDSkH6sf3eMIs-29">
          <mxGeometry width="50" height="50" relative="1" as="geometry">
            <mxPoint x="675" y="280" as="sourcePoint"/>
            <mxPoint x="725" y="230" as="targetPoint"/>
          </mxGeometry>
        </mxCell>
      </root>
    </mxGraphModel>
  </diagram>
</mxfile>
